<?xml version="1.0" encoding="utf-8"?>
<!-- Generator: Adobe Illustrator 16.0.0, SVG Export Plug-In . SVG Version: 6.00 Build 0)  -->
<!DOCTYPE svg PUBLIC "-//W3C//DTD SVG 1.1//EN" "http://www.w3.org/Graphics/SVG/1.1/DTD/svg11.dtd">
<svg version="1.1" id="Layer_1" xmlns="http://www.w3.org/2000/svg" xmlns:xlink="http://www.w3.org/1999/xlink" x="0px" y="0px"
	 width="204px" height="204px" viewBox="0 0 204 204" enable-background="new 0 0 204 204" xml:space="preserve">
<path fill="none" stroke="#000000" stroke-width="0.5" stroke-miterlimit="10" d="M193.4,101.998c0-2.603-0.133-5.173-0.35-7.72
	L202,91.577l-2.463-13.992l-9.311,0.52c-1.359-5.024-3.135-9.874-5.287-14.515l7.47-5.584l-7.103-12.305l-8.59,3.683
	c-2.979-4.22-6.288-8.19-9.921-11.84l5.112-7.809l-10.882-9.132l-6.808,6.395c-4.213-2.936-8.68-5.531-13.371-7.739l2.132-9.073
	l-13.353-4.859l-4.197,8.315c-4.924-1.301-10.009-2.193-15.221-2.658l-1.104-9.277H94.897l-1.102,9.277
	c-5.214,0.465-10.3,1.357-15.222,2.658l-4.2-8.315l-13.351,4.859l2.131,9.073c-4.69,2.208-9.157,4.804-13.37,7.742l-6.808-6.397
	l-10.883,9.132l5.111,7.809c-3.631,3.65-6.941,7.62-9.918,11.84l-8.588-3.683l-7.105,12.305l7.47,5.584
	c-2.154,4.642-3.931,9.491-5.287,14.515l-9.308-0.52L2,91.577l8.948,2.698c-0.214,2.55-0.349,5.12-0.349,7.723
	c0,2.602,0.135,5.172,0.349,7.723L2,112.419l2.467,13.994l9.306-0.527c1.357,5.027,3.134,9.877,5.289,14.522l-7.47,5.582
	l7.105,12.304l8.587-3.683c2.978,4.22,6.288,8.19,9.919,11.84l-5.111,7.809l10.883,9.129l6.808-6.395
	c4.212,2.941,8.68,5.538,13.372,7.746l-2.133,9.073l13.354,4.859l4.197-8.319c4.922,1.305,10.008,2.194,15.222,2.661l1.102,9.279
	h14.207l1.104-9.281c5.212-0.465,10.298-1.354,15.221-2.659l4.197,8.319l13.353-4.859l-2.132-9.077
	c4.691-2.204,9.158-4.804,13.373-7.742l6.802,6.395l10.886-9.129l-5.112-7.805c3.633-3.653,6.942-7.624,9.921-11.844l8.59,3.683
	l7.103-12.304l-7.47-5.585c2.153-4.643,3.93-9.495,5.287-14.52l9.311,0.521L202,112.419l-8.949-2.702
	C193.268,107.17,193.4,104.6,193.4,101.998z"/>
</svg>
