<?xml version="1.0" encoding="utf-8"?>
<!-- Generator: Adobe Illustrator 16.0.0, SVG Export Plug-In . SVG Version: 6.00 Build 0)  -->
<!DOCTYPE svg PUBLIC "-//W3C//DTD SVG 1.1//EN" "http://www.w3.org/Graphics/SVG/1.1/DTD/svg11.dtd">
<svg version="1.1" id="Layer_1" xmlns="http://www.w3.org/2000/svg" xmlns:xlink="http://www.w3.org/1999/xlink" x="0px" y="0px"
	 width="304px" height="304px" viewBox="0 0 304 304" enable-background="new 0 0 304 304" xml:space="preserve">
<path fill="none" stroke="#000000" stroke-width="0.2" stroke-miterlimit="10" d="M289.1,151.997c0-3.904-0.199-7.759-0.523-11.58
	L302,136.366l-3.695-20.987l-13.965,0.78c-2.039-7.537-4.703-14.811-7.932-21.773l11.205-8.376l-10.654-18.458l-12.885,5.524
	c-4.467-6.33-9.432-12.285-14.881-17.76l7.668-11.712l-16.322-13.698l-10.211,9.592c-6.32-4.403-13.02-8.297-20.057-11.608
	l3.197-13.61L193.439,6.99l-6.295,12.473c-7.387-1.951-15.014-3.29-22.832-3.987l-1.656-13.916h-21.31l-1.653,13.916
	c-7.821,0.697-15.45,2.036-22.833,3.987L110.559,6.99l-20.025,7.289l3.196,13.61c-7.035,3.312-13.736,7.205-20.055,11.613
	l-10.212-9.596L47.138,43.604l7.667,11.712c-5.447,5.475-10.412,11.43-14.877,17.76l-12.883-5.524L16.388,86.009l11.205,8.376
	c-3.231,6.962-5.896,14.236-7.931,21.773l-13.961-0.78L2,136.366l13.422,4.047c-0.321,3.825-0.523,7.68-0.523,11.584
	c0,3.902,0.202,7.758,0.523,11.584L2,167.628l3.701,20.992l13.959-0.791c2.035,7.541,4.701,14.814,7.933,21.783l-11.205,8.373
	l10.657,18.455l12.881-5.523c4.467,6.33,9.432,12.285,14.879,17.76l-7.667,11.713l16.325,13.693l10.212-9.592
	c6.318,4.412,13.02,8.307,20.058,11.619l-3.199,13.609l20.03,7.289l6.296-12.479c7.383,1.957,15.012,3.291,22.833,3.992
	l1.653,13.918h21.31l1.656-13.922c7.818-0.697,15.447-2.031,22.832-3.988l6.295,12.479l20.029-7.289l-3.197-13.615
	c7.037-3.307,13.736-7.205,20.059-11.613l10.203,9.592l16.328-13.693l-7.668-11.707c5.449-5.48,10.414-11.436,14.881-17.766
	l12.885,5.523l10.654-18.455l-11.205-8.377c3.23-6.965,5.895-14.243,7.932-21.779l13.965,0.781L302,167.628l-13.424-4.053
	C288.9,159.755,289.1,155.899,289.1,151.997z"/>
</svg>
