<svg xmlns="http://www.w3.org/2000/svg" width="32" height="32" viewBox="0 0 612 612"><g fill="#FFF"><path d="M601.54 278.748c-6.587-7.757-13.57-14.997-20.27-21.605-38.844-38.268-80.537-70.24-126.633-94.064-33.015-17.06-65.41-28.3-96.724-33.9-18.883-3.376-36.226-4.32-51.514-4.32-15.955 0-33.653.845-52.52 4.32-31.66 5.834-64.08 17.094-96.717 33.9-44.806 23.08-86.804 54.788-126.632 94.063-7.7 7.587-14.35 14.57-20.27 21.605-13.686 16.238-13.672 37.594 0 53.838 16.244 19.316 37.94 39.482 65.14 61.158 57.89 46.104 114.614 75.387 170.176 87.44 19.556 4.185 39.885 5.956 60.823 5.956 20.27 0 40.26-1.77 59.823-5.955 56.214-12.125 113.06-41.197 170.834-87.44 28.973-23.194 50.096-43.894 64.482-61.16 13.87-16.64 14.025-37.323 0-53.837zm-27.916 29.908c-14.628 17.953-34.836 36.553-59.83 56.506-52.45 41.877-103.97 69.084-155.214 79.79-18.89 3.9-36.227 5.317-52.18 5.317h-1c-16.288 0-33.285-1.49-51.522-5.32-50.57-10.776-102.566-37.323-155.88-79.788-25.13-20.018-44.87-38.887-59.158-56.506-2.326-1.66-2.326-3.652 0-5.978 1.66-2.326 4.566-5.736 8.637-9.977 4.24-4.402 7.317-7.643 8.977-9.635 38.552-37.893 77.94-66.468 117.662-86.414 31.745-15.946 60.504-26.49 86.414-30.915 14.976-2.552 30.25-3.985 45.87-3.985 14.953 0 29.922 1.262 45.528 3.985 26.27 4.588 55.102 15.11 86.42 30.916 40.474 20.422 79.438 48.855 116.996 86.415 8.637 8.644 14.74 15.188 18.28 19.613 1.787 2.234 1.66 4.318 0 5.978z"/><path d="M306.4 189.008c-32.242 0-60.165 11.295-83.096 34.234-22.93 22.93-34.234 50.52-34.234 82.755 0 32.24 11.217 59.583 34.234 82.43 22.853 22.688 50.854 33.9 83.095 33.9 32.233 0 59.49-11.296 82.095-33.9 22.93-22.933 34.233-50.19 34.233-82.43 0-32.234-11.388-59.74-34.233-82.755-22.69-22.853-49.862-34.234-82.096-34.234zm56.164 173.494c-15.62 15.62-34.233 23.264-56.165 23.264-22.272 0-41.22-7.977-56.84-23.598-15.62-15.62-23.597-34.566-23.597-56.17 0-22.266 7.977-40.878 23.598-56.5 15.622-15.62 34.568-23.598 56.84-23.598 22.264 0 40.792 8.055 56.164 23.598 15.543 15.706 23.27 34.234 23.27 56.5 0 21.938-7.65 40.883-23.27 56.504z"/></g></svg>