<svg xmlns="http://www.w3.org/2000/svg" viewBox="0 0 50 50" preserveAspectRatio="xMidYMid meet" width="50px" height="50px"><style>.st0{fill:#4e4f5a}</style><path class="st0" d="M9.5 17.7zM39.9 12.3h-.1.1zM17.1 18c1.1-.2 5.9 0 5.8-.2.7-.4 3.1.3 3.8-.1-.5 0 1-.3.5-.2.7 0 2.6-.1 3.7-.7 0 .1-.1.3-.2.4 3.1-.1 4.4.4 6.3-.3.5-.2 1 .6 1.8-.1.3-.3 1.2-4.5 1.2-4.5.1.2-1.3-.1-.2-.2-4.6-.4-10.5.2-15.4.4-3.9.1-11.8 1.6-15.1.1-.3 1.4.6 4.4.6 4.8-.2-.1-.3-.1-.3.1 1 .3 6.4-.3 7.5.5z"/><g><path class="st0" d="M39.5 22.5zM9.1 27.9h0zM31.9 22.2c-1.1.2-5.9 0-5.8.2-.7.4-3.1-.3-3.8.1.5 0-1 .3-.5.2-.7 0-2.6.1-3.7.7 0-.1.1-.3.2-.4-3.1.1-4.4-.4-6.3.3-.5.2-1-.6-1.8.1-.3.2-1.2 4.4-1.2 4.4-.1-.2 1.3.1.2.2 4.6.4 10.5-.2 15.4-.4 3.9-.1 11.8-1.6 15.1-.1.3-1.4-.6-4.4-.6-4.8.2.1.3.1.3-.1-1-.2-6.4.5-7.5-.4z"/></g><g><path class="st0" d="M9.5 37.7zM39.9 32.3h-.1.1zM17.1 38c1.1-.2 5.9 0 5.8-.2.7-.4 3.1.3 3.8-.1-.5 0 1-.3.5-.2.7 0 2.6-.1 3.7-.7 0 .1-.1.3-.2.4 3.1-.1 4.4.4 6.3-.3.5-.2 1 .6 1.8-.1.3-.3 1.2-4.5 1.2-4.5.1.2-1.3-.1-.2-.2-4.6-.4-10.5.2-15.4.4-3.9.1-11.8 1.6-15.1.1-.3 1.4.6 4.4.6 4.8-.2-.1-.3-.1-.3.1 1 .3 6.4-.3 7.5.5z"/></g></svg>