<svg xmlns="http://www.w3.org/2000/svg" viewBox="0 0 50 50" preserveAspectRatio="xMidYMid meet" width="50px" height="50px"><style>.st0{fill:#4e4f5a}</style><path class="st0" d="M14.2 39.1zM38.4 34.3zM38.1 34.2c0-.8-4.2-4.6-5.7-6.1l-1.2-1.2c-2.6-3.7-1.1-1.4-.2-5.3-.3.1-.3 0-.1-.3.5-.4 4-3.5 4.2-3.7.5-.6 1.6-1.5 1.7-1.8.1-.6-.6-5.2-1.6-5 .1 0-1.2 1-.3.1-1.4 1.2-2.3 2.2-3.6 3.7-1.6 1.8-5.9 7.7-7.1 5.6-.5-.5-1.5-2.1-3.2-2.5.1.3 0 .3-.3.1-.4-.5-3.5-4-3.7-4.2-.6-.5-1.5-1.6-1.8-1.7-.6-.1-5.2.6-5 1.6 0-.1 1 1.2.1.3 2.7 3.1 7.6 7.7 11.5 11-2.5 2.6-5.5 5.5-7.6 7.7-4.6 4.9-2.5 2.5.3 6.2 1.3 0 9.3-8.2 11.2-10.4 2.2 2.4 4.8 4.4 6.8 6.4 4.3 4.6 2.1 2.1 5.6-.5z"/></svg>