<svg xmlns="http://www.w3.org/2000/svg" viewBox="0 0 50 50" width="50" height="50"><defs><style>.cls-1{fill:#343642;}</style></defs><title>icon-menu</title><path class="cls-1" d="M16.07,16.25l0.07,0S16.13,16.26,16.07,16.25Z"/><path class="cls-1" d="M34.13,16.23h0Z"/><path class="cls-1" d="M18.85,17.82h0Z"/><path class="cls-1" d="M15.21,17.69c3.63,0.21,6.77-.23,9.71-0.28s11.43,1.84,14.8-.09c0.67-.38-6.71-1.05-7.09-1a41.75,41.75,0,0,1-4.74-.37c-1.35-1-8.13.12-10.79,0.53,0-.05-4.38-0.74-5,0.9-0.37.95,3.1,0.35,3.14,0.35C16.16,17.75,14.12,17.78,15.21,17.69Z"/><path class="cls-1" d="M35.93,25.58l-0.07,0S35.87,25.58,35.93,25.58Z"/><path class="cls-1" d="M17.87,25.6h0Z"/><path class="cls-1" d="M33.15,24h0Z"/><path class="cls-1" d="M36.79,24.14c-3.63-.21-6.77.23-9.71,0.28s-11.43-1.84-14.8.09c-0.67.38,6.71,1.05,7.09,1a41.75,41.75,0,0,1,4.74.37c1.35,1,8.13-.12,10.79-0.53,0,0.05,4.38.74,5-.9,0.37-.95-3.1-0.35-3.14-0.35C35.84,24.08,37.88,24.05,36.79,24.14Z"/><path class="cls-1" d="M16.07,32.59l0.07,0S16.13,32.59,16.07,32.59Z"/><path class="cls-1" d="M34.13,32.57h0Z"/><path class="cls-1" d="M18.85,34.15h0Z"/><path class="cls-1" d="M15.21,34c3.63,0.21,6.77-.23,9.71-0.28s11.43,1.84,14.8-.09c0.67-.38-6.71-1.05-7.09-1a41.75,41.75,0,0,1-4.74-.37c-1.35-1-8.13.12-10.79,0.53,0-.05-4.38-0.74-5,0.9-0.37.95,3.1,0.35,3.14,0.35C16.16,34.08,14.12,34.11,15.21,34Z"/></svg>