<svg xmlns="http://www.w3.org/2000/svg" viewBox="0 0 50 50" width="50" height="50"><defs><style>.cls-1{fill:#343642;}</style></defs><title>icon-x</title><path class="cls-1" d="M17.43,31.13l0.08,0S17.47,31.1,17.43,31.13Z"/><path class="cls-1" d="M30.18,18.35v0A0,0,0,0,0,30.18,18.35Z"/><path class="cls-1" d="M20.5,30.28h0Z"/><path class="cls-1" d="M17.84,32.76c2.72-2.42,4.63-4.95,6.67-7.07s9.38-6.78,10.4-10.53c0.2-.74-5.49,4-5.75,4.27a41.75,41.75,0,0,1-3.62,3.09c-1.64.27-5.67,5.83-7.25,8-0.06,0-3.62,2.58-2.92,4.19,0.41,0.93,2.44-1.94,2.47-2C18.55,32.13,17.13,33.59,17.84,32.76Z"/><path class="cls-1" d="M31.13,32.57l0-.08S31.1,32.53,31.13,32.57Z"/><path class="cls-1" d="M18.35,19.82h0Z"/><path class="cls-1" d="M30.28,29.5h0Z"/><path class="cls-1" d="M32.76,32.16c-2.42-2.72-4.95-4.63-7.07-6.67s-6.78-9.38-10.53-10.4c-0.74-.2,4,5.49,4.27,5.75a41.75,41.75,0,0,1,3.09,3.62c0.27,1.64,5.83,5.67,8,7.25,0,0.06,2.58,3.62,4.19,2.92,0.93-.41-1.94-2.44-2-2.47C32.13,31.45,33.59,32.87,32.76,32.16Z"/></svg>