<?xml version="1.0" encoding="utf-8"?>
<!DOCTYPE svg PUBLIC "-//W3C//DTD SVG 1.1//EN" "http://www.w3.org/Graphics/SVG/1.1/DTD/svg11.dtd">
<svg version="1.1" id="Layer_1" xmlns="http://www.w3.org/2000/svg" xmlns:xlink="http://www.w3.org/1999/xlink" x="0px" y="0px"
	 width="30px" height="20px" viewBox="0 0 40 30.809" enable-background="new 0 0 40 30.809" xml:space="preserve">
<path fill="#D2D2D2" d="M4.122,30.569c-0.347,0.235-1.219,0.442-1.728-0.123l-0.941-1.185c-0.455-0.769,0.096-1.482,0.452-1.778
	c1.697-1.407,2.93-2.495,3.701-3.265c1.509-1.589,2.624-3.177,3.361-4.76c0.168-0.363-0.262-0.593-0.485-0.666
	c-5.561-1.822-8.343-5.036-8.343-9.64c0-2.713,0.901-4.917,2.701-6.611C4.64,0.847,6.896,0,9.609,0c2.415,0,4.555,1.101,6.419,3.306
	c1.822,2.076,2.733,4.322,2.733,6.738C18.761,17.122,13.883,23.963,4.122,30.569L4.122,30.569z"/>
<path fill="#D2D2D2" d="M25.298,30.569c-0.349,0.235-1.22,0.442-1.73-0.123l-0.939-1.185c-0.455-0.769,0.096-1.482,0.452-1.778
	c1.696-1.407,2.93-2.495,3.7-3.265c1.51-1.589,2.623-3.177,3.36-4.76c0.169-0.363-0.261-0.593-0.484-0.666
	c-5.562-1.822-8.344-5.036-8.344-9.64c0-2.713,0.901-4.917,2.702-6.611S28.071,0,30.785,0c2.413,0,4.555,1.101,6.419,3.306
	c1.822,2.076,2.733,4.322,2.733,6.738C39.938,17.122,35.058,23.963,25.298,30.569L25.298,30.569z"/>
</svg>
