<?xml version="1.0" encoding="utf-8"?>
<!-- Generator: Adobe Illustrator 16.0.0, SVG Export Plug-In . SVG Version: 6.00 Build 0)  -->
<!DOCTYPE svg PUBLIC "-//W3C//DTD SVG 1.1//EN" "http://www.w3.org/Graphics/SVG/1.1/DTD/svg11.dtd">
<svg version="1.1" id="Layer_1" xmlns="http://www.w3.org/2000/svg" xmlns:xlink="http://www.w3.org/1999/xlink" x="0px" y="0px"
	 width="30px" height="20px" viewBox="0 0 40 30.809" enable-background="new 0 0 40 30.809" xml:space="preserve">
<path fill="#D2D2D2" d="M35.953,0.239c0.348-0.235,1.219-0.442,1.729,0.123l0.941,1.185c0.455,0.769-0.096,1.482-0.452,1.778
	c-1.696,1.407-2.931,2.495-3.7,3.265c-1.51,1.589-2.625,3.177-3.361,4.76c-0.168,0.363,0.262,0.593,0.484,0.666
	c5.562,1.822,8.344,5.036,8.344,9.64c0,2.713-0.9,4.916-2.701,6.611s-4.058,2.542-6.77,2.542c-2.415,0-4.556-1.101-6.42-3.306
	c-1.822-2.076-2.732-4.322-2.732-6.738C21.314,13.687,26.192,6.846,35.953,0.239L35.953,0.239z"/>
<path fill="#D2D2D2" d="M14.777,0.239c0.349-0.235,1.22-0.442,1.73,0.123l0.939,1.185c0.455,0.769-0.096,1.482-0.452,1.778
	c-1.696,1.407-2.93,2.495-3.7,3.265c-1.51,1.589-2.623,3.177-3.36,4.76c-0.169,0.363,0.261,0.593,0.484,0.666
	c5.562,1.822,8.344,5.036,8.344,9.64c0,2.713-0.901,4.916-2.702,6.611s-4.057,2.542-6.771,2.542c-2.413,0-4.555-1.101-6.419-3.306
	c-1.822-2.076-2.733-4.322-2.733-6.738C0.138,13.687,5.018,6.846,14.777,0.239L14.777,0.239z"/>
</svg>
