<svg xmlns="http://www.w3.org/2000/svg" width="50" height="30" viewBox="0 0 40 30.809"><path fill="#D2D2D2" d="M4.122 30.569c-.347.235-1.219.442-1.728-.123l-.941-1.185c-.455-.769.096-1.482.452-1.778 1.697-1.407 2.93-2.495 3.701-3.265 1.509-1.589 2.624-3.177 3.361-4.76.168-.363-.262-.593-.485-.666C2.921 16.97.139 13.756.139 9.152c0-2.713.901-4.917 2.701-6.611S6.896 0 9.609 0c2.415 0 4.555 1.101 6.419 3.306 1.822 2.076 2.733 4.322 2.733 6.738 0 7.078-4.878 13.919-14.639 20.525zM25.298 30.569c-.349.235-1.22.442-1.73-.123l-.939-1.185c-.455-.769.096-1.482.452-1.778 1.696-1.407 2.93-2.495 3.7-3.265 1.51-1.589 2.623-3.177 3.36-4.76.169-.363-.261-.593-.484-.666-5.562-1.822-8.344-5.036-8.344-9.64 0-2.713.901-4.917 2.702-6.611S28.071 0 30.785 0c2.413 0 4.555 1.101 6.419 3.306 1.822 2.076 2.733 4.322 2.733 6.738.001 7.078-4.879 13.919-14.639 20.525z"/></svg>