<svg xmlns="http://www.w3.org/2000/svg" width="35" height="25" viewBox="0 0 40 30.809"><path fill="#DDD" d="M35.953.239c.348-.235 1.219-.442 1.729.123l.941 1.185c.455.769-.096 1.482-.452 1.778-1.696 1.407-2.931 2.495-3.7 3.265-1.51 1.589-2.625 3.177-3.361 4.76-.168.363.262.593.484.666 5.562 1.822 8.344 5.036 8.344 9.64 0 2.713-.9 4.916-2.701 6.611s-4.058 2.542-6.77 2.542c-2.415 0-4.556-1.101-6.42-3.306-1.822-2.076-2.732-4.322-2.732-6.738-.001-7.078 4.877-13.919 14.638-20.526zM14.777.239c.349-.235 1.22-.442 1.73.123l.939 1.185c.455.769-.096 1.482-.452 1.778-1.696 1.407-2.93 2.495-3.7 3.265-1.51 1.589-2.623 3.177-3.36 4.76-.169.363.261.593.484.666 5.562 1.822 8.344 5.036 8.344 9.64 0 2.713-.901 4.916-2.702 6.611s-4.057 2.542-6.771 2.542c-2.413 0-4.555-1.101-6.419-3.306C1.048 25.427.137 23.181.137 20.765.138 13.687 5.018 6.846 14.777.239z"/></svg>