<svg xmlns="http://www.w3.org/2000/svg" width="52px" height="30px" viewBox="0 0 528.464 305.2"><path fill="#FFF" d="M51.841 171.255c.922 0 1.848-.351 2.553-1.057l15.534-15.539a3.603 3.603 0 0 0 0-5.101c-1.409-1.41-3.794-1.41-5.204 0l-9.574 9.474v-34.839a3.608 3.608 0 0 0-3.609-3.609 3.611 3.611 0 0 0-3.61 3.609v34.642l-8.778-8.879a3.544 3.544 0 0 0-5.051 0c-1.409 1.407-1.386 3.691.022 5.101l15.152 15.14a3.627 3.627 0 0 0 2.565 1.058zm0 0"/><path fill="#FFF" d="M244.557 56.307H15.777C7.078 56.307 0 63.385 0 72.084v149.837c0 8.699 7.078 15.777 15.777 15.777h51.228l31.743 59.716c2.376 4.72 7.276 7.753 12.577 7.756l62.534.03c6.471 0 12.104-4.437 13.67-10.648l6.109-18.279c.026-.077.048-.151.074-.229 1.821-7.662 14.889-32.592 17.924-38.345h32.921c8.699 0 15.777-7.078 15.777-15.777V72.084c0-8.699-7.078-15.777-15.777-15.777zm-48.15 192.074c-2.689 4.903-7 13.375-11.379 25.011l-6.246 18.704a5.016 5.016 0 0 1-4.912 4.048h-.004l-62.537-.041a5.013 5.013 0 0 1-4.525-2.87l-19.453-35.534-4.927-9-20.932-38.236a3.49 3.49 0 0 0-.182-.336c-5.515-9.37 2.489-18.098 10.667-18.098 3.638.003 7.318 1.732 9.844 5.91l.856 1.314c1.737 2.673 4.824 3.871 7.989 3.871 5.205 0 10.63-3.244 10.634-8.488l.03-61.57c.003-7.952 6.157-11.926 12.31-11.926 6.154 0 12.311 3.982 12.307 11.938l-.011 40.547c0 2.411 1.954 4.517 4.354 4.517h.074c2.445 0 4.314-2.349 4.314-4.798v-49.667c0-6.892 5.688-12.185 12.654-12.185 7.549 0 12.307 6.168 12.307 12.736v49.54c0 2.12 1.806 3.827 3.915 3.827h.133c.259-.007.543-.012.809-.012 5.004 0 11.719 1.19 15.834 8.88.794 1.477 2.489 2.26 4.17 2.26h.129c.188-.002.384-.006.583-.006 6.153 0 18.598 1.667 22.986 19.333 2.78 11.182-3.291 24.831-11.791 40.331zM147.38 102.413c-5.729 0-11.088 2.131-15.166 6.002a20.935 20.935 0 0 0-5.26 7.989c-3.729-2.808-8.402-4.34-13.33-4.34-12.184 0-21.375 9.027-21.378 20.998l-.008 17.91c-5.396-5.263-8.758-12.601-8.758-20.716 0-15.972 12.994-28.966 28.965-28.966 3.714 0 7.343.701 10.785 2.083l1.358.545.931-1.129a28.888 28.888 0 0 1 22.365-10.558c15.972 0 28.967 12.994 28.967 28.965 0 7.8-3.105 14.884-8.138 20.097v-17.065c.001-12.234-9.321-21.815-21.333-21.815zm103.954 119.508a6.784 6.784 0 0 1-6.777 6.777l-30.524-.317c1.283-3.118 2.681-8.948 3.25-13.5.539-4.313 1.083-17.833-15.061-30.362-5.115-3.97-11.195-4.639-15.469-4.842-3.261-4.834-8.96-9.709-18.039-10.895v-22.077c7.397-6.049 12.138-15.23 12.138-25.509 0-18.177-14.789-32.965-32.967-32.965a32.862 32.862 0 0 0-24.512 10.922 32.783 32.783 0 0 0-10.927-1.863c-18.177 0-32.965 14.789-32.965 32.966 0 10.561 5.006 19.959 12.755 25.995l-.018 37.471a3.971 3.971 0 0 1-1.556.328c-.258 0-.454-.029-.583-.059l-.579-.895c-3.964-6.444-10.343-10.142-17.523-10.142-7.671 0-15.091 4.313-18.911 10.996-2.746 4.8-3.366 10.208-1.883 15.433L62.078 228.7H15.777A6.784 6.784 0 0 1 9 221.923V72.084a6.785 6.785 0 0 1 6.777-6.777h228.779a6.785 6.785 0 0 1 6.777 6.777v149.837z"/><g fill="#FFF"><path d="M377.355 148.469a3.62 3.62 0 0 0 2.564 1.056c.922 0 1.846-.35 2.551-1.056l15.537-15.539a3.608 3.608 0 0 0 0-5.101c-1.41-1.41-3.797-1.41-5.205 0l-9.574 9.475v-34.839a3.607 3.607 0 0 0-3.609-3.609 3.61 3.61 0 0 0-3.609 3.609v34.642l-8.777-8.879a3.546 3.546 0 0 0-5.051 0c-1.41 1.407-1.387 3.692.023 5.102l15.15 15.139z"/><path d="M527.564 201.961c-3.037-18.099-13.932-24.996-22.236-27.615v-64.107c0-9.98-2.084-29.164-16.045-45.539-13-15.248-32.361-23.457-57.597-24.442-.886-2.819-1.437-6.269-.708-9.83 1.04-5.113 4.604-9.566 10.557-13.271 7.395-4.577 16.303-2.996 25.729-1.319 13.15 2.338 28.053 4.98 38.732-10.899L498.768 0c-7.127 10.592-16.021 9.616-29.944 7.145-10.124-1.792-21.602-3.832-31.836 2.505-8.155 5.044-13.066 11.49-14.6 19.13-.828 4.129-.511 8.035.262 11.447-25.933.728-45.792 8.94-59.032 24.473-13.959 16.375-16.045 35.558-16.045 45.539v95.6c0 9.977 2.086 29.16 16.045 45.535 7.965 9.344 18.34 16.023 30.98 20.031 1.971.625 4.012 1.164 6.09 1.66l13.533 25.916c1.988 3.805 5.891 6.219 10.188 6.219h70.207c6.059 0 11.102-4.789 11.473-10.84l1.633-26.594c17.413-26.801 23.171-45.992 19.842-65.805zm-138.78 58.311c-30.944-14.619-32.96-46.544-32.96-54.433v-95.6c0-10.109 3.271-59.686 66.5-61.757h8.248c63.232 2.071 66.506 51.647 66.506 61.757v60.633c-5.221-5.856-12.262-9.039-20.244-9.039-2.129 0-4.129.304-5.93.636-5.27-6.07-12.312-9.269-20.555-9.269h-.641v-29.735c0-5.373-1.685-10.185-4.557-14.002V87.048c0-8.894-6.244-16.353-14.58-18.238 0 0-1.871-.378-3.932-.378-2.02 0-4.316.378-4.316.378-8.332 1.886-14.576 9.345-14.576 18.238v23.727c-2.307 3.587-3.637 7.917-3.637 12.69v57.313l-.562-.809c-4.312-7.011-11.262-11.031-19.062-11.031-8.406 0-16.52 4.746-20.66 12.09-3.949 7.016-3.754 15.187.535 22.472l31.051 59.462a67.111 67.111 0 0 1-6.628-2.69zm109.792 3.912a1.863 1.863 0 0 0-.312.926l-1.758 28.66c-.059 1-.891 1.828-1.891 1.828h-70.207c-.707 0-1.352-.441-1.68-1.066l-49.988-95.695c-6.344-10.468 2.598-20.288 11.727-20.288 4.039.003 8.117 1.917 10.922 6.546l6.395 9.821c1.324 2.035 3.375 2.941 5.371 2.941 3.285 0 6.555-2.469 6.555-6.461v-67.93c0-8.828 6.578-13.238 13.199-13.238s13.199 4.41 13.199 13.238v38.618c0 1.078.887 1.902 1.891 1.902.191 0 .387-.027.578-.09 1.848-.594 4.582-1.254 7.641-1.25 5.254 0 11.48 1.938 15.859 9.445a2.014 2.014 0 0 0 1.73 1.012c.223 0 .449-.039.668-.121 1.762-.648 4.836-1.547 8.359-1.547 4.906 0 10.684 1.742 14.996 8.321 1.027 1.57 2.766 2.519 4.641 2.625 5.949.339 18.613 3.21 21.625 21.171 2.894 17.245-2.094 34.238-19.52 60.632z"/></g></svg>