<svg xmlns="http://www.w3.org/2000/svg" width="600" height="388.473" viewBox="0 205.764 600 388.473"><g fill="#010002"><path d="M589.987 205.764H13.077C5.17 205.764 0 210.933 0 225.841v365.396c0-2.158 5.17 3 13.077 3H590c4.843 0 10.001-5.157 10.001-3V225.841c-.013-14.92-5.171-20.077-10.014-20.077zm-4.539 373.933H16.077V220.841H585.46v358.856h-.012z"/><path d="M102.059 525.766c5.107 4.734 12.066.25 14.316-2l109.437-109.437 64.466 64.466c2.25 2.25 5.204 5.381 8.158 5.381s5.908-3.131 8.158-5.381l66.036-66.036 107.868 107.868c2.249 2.25 7.669 5.207 12.315 1 4.512-4.512 4.512-8.805 0-13.316L384.945 400.443l109.437-109.437c4.512-4.511 6.512-9.805 2-14.316-4.511-4.511-9.805-2.511-14.315 2L366.472 394.296l-68.036 68.036-66.466-66.466L117.944 281.84c-4.511-4.511-9.805-6.511-14.316-2s-2.511 9.805 2 14.316l107.868 107.879-109.437 109.437c-4.511 4.49-6.511 9.794-2 14.294z"/></g></svg>