<svg xmlns="http://www.w3.org/2000/svg" width="74" height="70.801" viewBox="0 0 74 70.801"><path d="M73 70.801H57.566a1 1 0 0 1-1-1V44.965c0-6.301-2.293-9.496-6.816-9.496-4.487 0-6.383 3.509-6.99 5.017-.297.725-.439 1.831-.439 3.39v25.926a1 1 0 0 1-1 1H25.883a1 1 0 0 1-1-1.005c.002-.421.205-42.09.001-46.37a.996.996 0 0 1 .999-1.047H41.32a1 1 0 0 1 1 1v3.553c2.468-2.87 6.345-5.644 12.91-5.644C66.983 21.289 74 29.472 74 43.18v26.621a1 1 0 0 1-1 1zm-14.434-2H72V43.18c0-12.641-6.112-19.891-16.77-19.891-7.267 0-10.734 3.686-12.924 6.989a1.002 1.002 0 0 1-.986.832h-.102a.998.998 0 0 1-.898-1.439V24.38H26.913c.142 7.062.004 38.255-.025 44.422H40.32V43.875c0-1.849.187-3.165.586-4.142 1.578-3.921 4.885-6.265 8.844-6.265 5.686 0 8.816 4.083 8.816 11.496v23.837zm-41.218 2H1.918a1 1 0 0 1-1-1V23.379a1 1 0 0 1 1-1h15.43a1 1 0 0 1 1 1v46.422a1 1 0 0 1-1 1zm-14.43-2h13.43V24.379H2.918v44.422zm6.715-50.758h-.102C4.008 18.043 0 14.248 0 9.02 0 3.793 4.094 0 9.734 0c5.552 0 9.512 3.7 9.628 8.998.001 5.25-4.091 9.045-9.729 9.045zM9.734 2C5.18 2 2 4.887 2 9.02c0 4.135 3.097 7.023 7.531 7.023h.102c4.551 0 7.73-2.888 7.73-7.023C17.27 4.83 14.204 2 9.734 2z"/></svg>