<svg xmlns="http://www.w3.org/2000/svg" width="47px" height="55px" viewBox="-50.924 -42.5 475.795 554.5"><path fill="#FFF" d="M19.62 224.135l49.668-51.232c5.063-5.225 5.066-13.696-.002-18.921-5.065-5.224-13.278-5.224-18.344 0l-26.344 27.173V52.945c0-7.389-5.809-13.379-12.972-13.379-7.162 0-12.972 5.99-12.972 13.379v130.653l-27.438-28.296c-5.065-5.228-13.278-5.228-18.344.001-2.532 2.611-3.798 6.036-3.798 9.458 0 3.423 1.267 6.849 3.8 9.462L1.275 224.14c5.064 5.222 13.277 5.222 18.345-.005zM421.542 252.217c-5.61-33.175-22.354-50.545-35.413-59.273-12.738-8.516-25.97-11.794-36.296-12.899-13.312-17.809-32.47-27.531-54.556-27.531a80.7 80.7 0 0 0-14.736 1.384c-13.107-14.98-31.121-23.143-51.41-23.143-.375 0-.748.004-1.125.01l-.035-29.484c16.3-15.153 26.507-36.77 26.507-60.782 0-45.84-37.16-83-83-83-.167 0-.333.012-.5.013-.167-.001-.333-.013-.5-.013-45.84 0-83 37.16-83 83 0 24.049 10.236 45.697 26.583 60.85l.076 62.297.082 67.662c-15.216 8.137-25.737 21.013-30.613 37.595-7.513 25.542-1.525 58.439 18.304 100.571 13.051 27.725 28.716 51.981 36.217 63.041l3.324 44.252c1.486 19.758 18.17 35.232 37.98 35.232l157.693-.194c19.024-.024 35.239-14.267 37.716-33.13l6.125-46.644c37.23-58.371 50.885-118.862 40.577-179.814zM130.036 16.494c-10.504 10.521-16.048 24.534-16.028 40.532l.033 26.875C104.903 71.834 99.478 56.804 99.478 40.5c0-39.597 31.967-71.717 71.5-71.987 39.533.27 71.5 32.39 71.5 71.987 0 16.272-5.422 31.263-14.527 43.318l-.032-26.931c-.02-16.971-6.549-32.101-18.378-42.605C199.172 5.071 185.473 0 170.967 0c-15.541 0-30.459 6.011-40.931 16.494zM359.56 420.838a14.084 14.084 0 0 0-2.153 5.807l-6.422 48.903c-.914 6.976-6.855 11.764-13.891 11.772l-157.644-.235h-.018c-7.336 0-13.436-5.227-13.987-12.547l-3.527-46.722c-.188-2.479-1.021-4.74-2.43-6.79-14.43-20.966-95-143.253-29.753-170.527a13.902 13.902 0 0 0 8.552-12.86c-.042-33.31-.173-143.846-.219-180.657-.028-21.949 16.436-32.929 32.899-32.929 16.431 0 32.865 10.952 32.891 32.861l.103 84.79c.01 7.852 6.402 14.007 13.981 14.007.726 0 1.464-.054 2.208-.172a57.852 57.852 0 0 1 8.983-.722c11.842 0 25.659 3.966 36.246 18.633 2.629 3.641 6.839 5.636 11.206 5.636 1.226 0 2.466-.156 3.687-.479 4.15-1.097 9.346-2.031 15.006-2.031 12.372 0 26.963 4.461 37.724 21.416a12.162 12.162 0 0 0 9.847 5.663c14.218.513 47.219 6.743 54.971 52.578 7.185 42.482 3.874 99.482-38.26 164.605z"/></svg>