<svg xmlns="http://www.w3.org/2000/svg" width="454.598" height="512" viewBox="26.706 0 454.598 512"><g fill="#FFF"><path d="M92.13 195.964l46.063-46.067c4.696-4.698 4.698-12.315-.002-17.014-4.697-4.697-12.314-4.697-17.013 0l-24.432 24.434V42.03c0-6.645-5.388-12.03-12.03-12.03s-12.03 5.386-12.03 12.03v117.483L47.24 134.069c-4.697-4.7-12.314-4.7-17.013.001a11.993 11.993 0 0 0-3.522 8.505 12 12 0 0 0 3.524 8.508l44.887 44.885c4.697 4.697 12.314 4.697 17.014-.004zM442.561 192.944c-12.738-8.516-25.969-11.794-36.295-12.899-13.312-17.809-32.471-27.531-54.557-27.531-4.846 0-9.779.463-14.736 1.384-13.107-14.98-31.12-23.143-51.409-23.143-.375 0-.748.004-1.125.01l-.088-73.878c-.021-16.971-6.549-32.101-18.378-42.605C255.604 5.071 241.905 0 227.399 0c-15.541 0-30.459 6.011-40.931 16.494-10.504 10.521-16.048 24.534-16.028 40.532l.13 106.621.082 67.662c-15.216 8.137-25.737 21.013-30.613 37.595-7.513 25.542-1.525 58.439 18.304 100.571 13.051 27.725 28.716 51.981 36.217 63.041l3.324 44.252c1.486 19.758 18.17 35.232 37.98 35.232l157.692-.194c19.025-.024 35.24-14.267 37.717-33.13l6.125-46.644c37.229-58.372 50.883-118.863 40.576-179.815-5.611-33.175-22.355-50.545-35.413-59.273zm-26.569 227.894a14.1 14.1 0 0 0-2.154 5.807l-6.422 48.903c-.914 6.976-6.855 11.764-13.891 11.772l-157.643-.235h-.018c-7.336 0-13.436-5.227-13.987-12.547l-3.527-46.722c-.188-2.479-1.021-4.74-2.43-6.79-14.43-20.966-95-143.253-29.753-170.527a13.902 13.902 0 0 0 8.552-12.86c-.042-33.31-.173-143.846-.219-180.657-.028-21.949 16.436-32.929 32.899-32.929 16.431 0 32.865 10.952 32.89 32.861l.104 84.79c.01 7.852 6.401 14.007 13.98 14.007.727 0 1.464-.054 2.207-.172a57.852 57.852 0 0 1 8.983-.722c11.842 0 25.659 3.966 36.245 18.633 2.629 3.641 6.84 5.636 11.207 5.636 1.225 0 2.465-.156 3.686-.479 4.15-1.097 9.346-2.031 15.006-2.031 12.373 0 26.963 4.461 37.725 21.416a12.16 12.16 0 0 0 9.846 5.663c14.219.513 47.219 6.743 54.971 52.578 7.189 42.482 3.878 99.482-38.257 164.605z"/></g></svg>