<svg xmlns="http://www.w3.org/2000/svg" width="612.899" height="275.044" viewBox="0 0 612.899 275.044"><path fill="#FFF" d="M427.356 85.37c.922 0 1.846-.35 2.551-1.056l15.537-15.539a3.608 3.608 0 0 0 0-5.101c-1.41-1.41-3.797-1.41-5.205 0l-9.574 9.475v-24.84a3.607 3.607 0 0 0-3.609-3.609 3.61 3.61 0 0 0-3.609 3.609v24.642l-8.777-8.879a3.546 3.546 0 0 0-5.051 0c-1.41 1.407-1.387 3.692.023 5.102l15.15 15.14a3.62 3.62 0 0 0 2.564 1.056zm0 0M98.841 138.024c.922 0 1.848-.351 2.553-1.057l15.534-15.539a3.603 3.603 0 0 0 0-5.101c-1.409-1.41-3.794-1.41-5.204 0l-9.574 9.474v-24.839a3.608 3.608 0 0 0-3.609-3.609 3.611 3.611 0 0 0-3.61 3.609v24.642l-8.778-8.879a3.544 3.544 0 0 0-5.051 0c-1.409 1.407-1.386 3.691.022 5.101l15.152 15.14a3.627 3.627 0 0 0 2.565 1.058zm0 0"/><path fill="#FFF" d="M572.001 171.806c-3.037-18.099-13.932-24.996-22.236-27.615V70.083c0-9.98-2.084-29.164-16.045-45.539C519.835 8.258 498.694 0 470.888 0c-27.809 0-48.951 8.258-62.834 24.544-13.959 16.375-16.045 35.558-16.045 45.539v115.6c0 9.977 2.086 29.16 16.045 45.535 10.35 12.142 24.756 19.798 42.934 22.919l7.67 14.688c1.988 3.805 5.891 6.219 10.188 6.219h70.207c6.059 0 11.102-4.789 11.473-10.84l1.633-26.594c17.412-26.8 23.17-45.991 19.842-65.804zM466.761 8.326h8.248c63.232 2.071 66.506 51.647 66.506 61.757v23.604h-47.369v-.377c0-6.41-2.373-12.041-6.334-16.109a18.515 18.515 0 0 0 1.777-7.915V46.892c0-8.894-6.244-16.353-14.58-18.238 0 0-1.871-.378-3.932-.378-2.02 0-4.316.378-4.316.378-8.332 1.886-14.576 9.345-14.576 18.238v22.393c0 3.086.758 5.995 2.088 8.562-3.594 4.009-5.725 9.387-5.725 15.463v.377h-48.287V70.083c0-10.109 3.271-59.686 66.5-61.757zm74.754 90.361v42.029c-5.221-5.856-12.262-9.039-20.244-9.039-2.129 0-4.129.304-5.93.636-5.27-6.07-12.312-9.269-20.555-9.269h-.641V98.687h47.37zm-60.176-51.795v22.393c0 1.088-.178 2.133-.488 3.119-2.863-1.245-6.068-1.934-9.502-1.934-3.758 0-7.242.822-10.303 2.297a10.33 10.33 0 0 1-.609-3.482V46.892c0-5.764 4.688-10.45 10.451-10.45 5.759 0 10.451 4.686 10.451 10.45zm-81.078 138.791V98.687h48.287v51.936l-.562-.809c-4.312-7.011-11.262-11.031-19.062-11.031-8.406 0-16.52 4.746-20.66 12.09-3.949 7.016-3.754 15.187.535 22.472l37.246 71.328c-43.259-10.915-45.784-50.127-45.784-58.99zm142.752 48.346a1.863 1.863 0 0 0-.312.926l-1.758 28.66c-.059 1-.891 1.828-1.891 1.828h-70.207c-.707 0-1.352-.441-1.68-1.066l-49.988-95.696c-6.344-10.468 2.598-20.288 11.727-20.288 4.039.003 8.117 1.917 10.922 6.546l6.395 9.821c1.324 2.035 3.375 2.941 5.371 2.941 3.285 0 6.555-2.469 6.555-6.461V93.31c0-8.828 6.578-13.238 13.199-13.238s13.199 4.41 13.199 13.238v38.618c0 1.078.887 1.902 1.891 1.902.191 0 .387-.027.578-.09 1.848-.594 4.582-1.254 7.641-1.25 5.254 0 11.48 1.938 15.859 9.445a2.014 2.014 0 0 0 1.73 1.012c.223 0 .449-.039.668-.121 1.762-.648 4.836-1.547 8.359-1.547 4.906 0 10.684 1.742 14.996 8.321 1.027 1.57 2.766 2.519 4.641 2.625 5.949.339 18.613 3.21 21.625 21.171 2.894 17.246-2.095 34.238-19.52 60.633zM284.557 25.076H55.777c-8.7 0-15.777 7.078-15.777 15.777V210.69c0 8.699 7.078 15.777 15.777 15.777h61.228l21.743 39.716c2.376 4.72 7.276 7.753 12.577 7.756l62.534.03c6.471 0 12.104-4.437 13.67-10.648l6.109-18.279c.026-.077.048-.151.074-.229 4.261-6.507 7.889-12.592 10.924-18.345h39.921c8.699 0 15.777-7.078 15.777-15.777V40.853c0-8.7-7.078-15.777-15.777-15.777zM55.777 217.467A6.784 6.784 0 0 1 49 210.69v-27.54h44.296c.039.068.072.138.112.207.036.078.077.155.122.229l18.549 33.882H55.777zm183.275 0l-4.736 9c-2.487 4.396-5.333 9.02-8.553 13.913a5.067 5.067 0 0 0-.735 1.78l-6.246 18.704a5.016 5.016 0 0 1-4.912 4.048h-.004l-62.537-.041a5.013 5.013 0 0 1-4.525-2.87l-19.453-35.534-4.927-9-20.932-38.236a3.49 3.49 0 0 0-.182-.336c-5.515-9.37 2.489-18.098 10.667-18.098 3.638.003 7.318 1.732 9.844 5.91l.856 1.314c1.737 2.673 4.824 3.871 7.989 3.871 5.205 0 10.63-3.244 10.634-8.488l.03-61.57c.003-7.952 6.157-11.926 12.31-11.926 6.154 0 12.311 3.982 12.307 11.938l-.011 40.547c0 2.411 1.954 4.517 4.354 4.517h.074c2.445 0 4.314-2.349 4.314-4.798V92.444c0-6.892 5.688-12.185 12.654-12.185 7.549 0 12.307 6.168 12.307 12.736v49.54c0 2.12 1.806 3.827 3.915 3.827h.133c.259-.007.543-.012.809-.012 5.004 0 11.719 1.19 15.834 8.88.794 1.477 2.489 2.26 4.17 2.26h.129c.188-.002.384-.006.583-.006 6.153 0 18.663 2.278 21.666 20.232 2 11.956-.445 24.479-7.826 39.751zM187.38 71.181c-5.729 0-11.088 2.131-15.166 6.002a20.935 20.935 0 0 0-5.26 7.989c-3.729-2.808-8.402-4.34-13.33-4.34-12.184 0-21.375 9.027-21.378 20.998l-.008 17.91c-5.396-5.263-8.758-12.601-8.758-20.716 0-15.972 12.994-28.966 28.965-28.966 3.714 0 7.343.701 10.785 2.083l1.358.545.931-1.129a28.888 28.888 0 0 1 22.365-10.558c15.972 0 28.967 12.994 28.967 28.965 0 7.8-3.105 14.884-8.138 20.097V92.996c.001-12.234-9.321-21.815-21.333-21.815zM291.334 210.69a6.784 6.784 0 0 1-6.777 6.777h-35.541c5.619-12.692 8.019-23.781 7.546-34.317h34.772v27.54zm0-32.54h-35.22a59.724 59.724 0 0 0-.282-1.929c-2.172-12.972-8.603-19.631-13.61-22.933-5.408-3.56-11.195-4.639-15.469-4.842-3.261-4.834-8.96-9.709-18.039-10.895v-22.077c7.397-6.049 12.138-15.23 12.138-25.509 0-18.177-14.789-32.965-32.967-32.965a32.862 32.862 0 0 0-24.512 10.922 32.783 32.783 0 0 0-10.927-1.863c-18.177 0-32.965 14.789-32.965 32.966 0 10.561 5.006 19.959 12.755 25.995l-.018 37.471a3.971 3.971 0 0 1-1.556.328c-.258 0-.454-.029-.583-.059l-.579-.895c-3.964-6.444-10.343-10.142-17.523-10.142-7.671 0-15.091 4.313-18.911 10.996-2.746 4.8-3.366 10.208-1.883 15.433H49V40.853a6.785 6.785 0 0 1 6.777-6.777h228.779a6.785 6.785 0 0 1 6.777 6.777V178.15z"/></svg>