<?xml version="1.0" encoding="utf-8"?>
<!-- Generator: Adobe Illustrator 16.0.0, SVG Export Plug-In . SVG Version: 6.00 Build 0)  -->
<!DOCTYPE svg PUBLIC "-//W3C//DTD SVG 1.1//EN" "http://www.w3.org/Graphics/SVG/1.1/DTD/svg11.dtd">
<svg version="1.1" id="Layer_1" xmlns="http://www.w3.org/2000/svg" xmlns:xlink="http://www.w3.org/1999/xlink" x="0px" y="0px"
	 width="612.899px" height="275.044px" viewBox="0 0 612.899 275.044" enable-background="new 0 0 612.899 275.044"
	 xml:space="preserve">
<path fill="#FFFFFF" d="M427.356,85.37c0.922,0,1.846-0.35,2.551-1.056l15.537-15.539c1.408-1.409,1.408-3.694,0-5.101
	c-1.41-1.41-3.797-1.41-5.205,0l-9.574,9.475V48.309c0-1.995-1.615-3.609-3.609-3.609c-1.99,0-3.609,1.615-3.609,3.609v24.642
	l-8.777-8.879c-1.408-1.409-3.645-1.409-5.051,0c-1.41,1.407-1.387,3.692,0.023,5.102l15.15,15.14
	C425.497,85.02,426.433,85.37,427.356,85.37L427.356,85.37z M427.356,85.37"/>
<path fill="#FFFFFF" d="M98.841,138.024c0.922,0,1.848-0.351,2.553-1.057l15.534-15.539c1.411-1.409,1.411-3.694,0-5.101
	c-1.409-1.41-3.794-1.41-5.204,0l-9.574,9.474v-24.839c0-1.995-1.616-3.609-3.609-3.609c-1.99,0-3.61,1.615-3.61,3.609v24.642
	l-8.778-8.879c-1.406-1.41-3.644-1.41-5.051,0c-1.409,1.407-1.386,3.691,0.022,5.101l15.152,15.14
	C96.984,137.673,97.919,138.024,98.841,138.024L98.841,138.024z M98.841,138.024"/>
<path fill="#FFFFFF" d="M572.001,171.806c-3.037-18.099-13.932-24.996-22.236-27.615V70.083c0-9.98-2.084-29.164-16.045-45.539
	C519.835,8.258,498.694,0,470.888,0c-27.809,0-48.951,8.258-62.834,24.544c-13.959,16.375-16.045,35.558-16.045,45.539v115.6
	c0,9.977,2.086,29.16,16.045,45.535c10.35,12.142,24.756,19.798,42.934,22.919l7.67,14.688c1.988,3.805,5.891,6.219,10.188,6.219
	h70.207c6.059,0,11.102-4.789,11.473-10.84l1.633-26.594C569.571,210.81,575.329,191.619,572.001,171.806z M466.761,8.326h8.248
	c63.232,2.071,66.506,51.647,66.506,61.757v23.604h-47.369V93.31c0-6.41-2.373-12.041-6.334-16.109
	c1.133-2.405,1.777-5.083,1.777-7.915V46.892c0-8.894-6.244-16.353-14.58-18.238c0,0-1.871-0.378-3.932-0.378
	c-2.02,0-4.316,0.378-4.316,0.378c-8.332,1.886-14.576,9.345-14.576,18.238v22.393c0,3.086,0.758,5.995,2.088,8.562
	c-3.594,4.009-5.725,9.387-5.725,15.463v0.377h-48.287V70.083C400.261,59.974,403.532,10.397,466.761,8.326z M541.515,98.687v42.029
	c-5.221-5.856-12.262-9.039-20.244-9.039c-2.129,0-4.129,0.304-5.93,0.636c-5.27-6.07-12.312-9.269-20.555-9.269h-0.641V98.687
	H541.515z M481.339,46.892v22.393c0,1.088-0.178,2.133-0.488,3.119c-2.863-1.245-6.068-1.934-9.502-1.934
	c-3.758,0-7.242,0.822-10.303,2.297c-0.389-1.09-0.609-2.259-0.609-3.482V46.892c0-5.764,4.688-10.45,10.451-10.45
	C476.647,36.442,481.339,41.128,481.339,46.892z M400.261,185.683V98.687h48.287v51.936l-0.562-0.809
	c-4.312-7.011-11.262-11.031-19.062-11.031c-8.406,0-16.52,4.746-20.66,12.09c-3.949,7.016-3.754,15.187,0.535,22.472l37.246,71.328
	C402.786,233.758,400.261,194.546,400.261,185.683z M543.013,234.029c-0.184,0.273-0.293,0.598-0.312,0.926l-1.758,28.66
	c-0.059,1-0.891,1.828-1.891,1.828h-70.207c-0.707,0-1.352-0.441-1.68-1.066l-49.988-95.696
	c-6.344-10.468,2.598-20.288,11.727-20.288c4.039,0.003,8.117,1.917,10.922,6.546l6.395,9.821c1.324,2.035,3.375,2.941,5.371,2.941
	c3.285,0,6.555-2.469,6.555-6.461V93.31c0-8.828,6.578-13.238,13.199-13.238s13.199,4.41,13.199,13.238v38.618
	c0,1.078,0.887,1.902,1.891,1.902c0.191,0,0.387-0.027,0.578-0.09c1.848-0.594,4.582-1.254,7.641-1.25
	c5.254,0,11.48,1.938,15.859,9.445c0.367,0.633,1.035,1.012,1.73,1.012c0.223,0,0.449-0.039,0.668-0.121
	c1.762-0.648,4.836-1.547,8.359-1.547c4.906,0,10.684,1.742,14.996,8.321c1.027,1.57,2.766,2.519,4.641,2.625
	c5.949,0.339,18.613,3.21,21.625,21.171C565.427,190.642,560.438,207.634,543.013,234.029z"/>
<path fill="#FFFFFF" d="M284.557,25.076H55.777c-8.7,0-15.777,7.078-15.777,15.777V210.69c0,8.699,7.078,15.777,15.777,15.777
	h61.228l21.743,39.716c2.376,4.72,7.276,7.753,12.577,7.756l62.534,0.03c6.471,0,12.104-4.437,13.67-10.648l6.109-18.279
	c0.026-0.077,0.048-0.151,0.074-0.229c4.261-6.507,7.889-12.592,10.924-18.345h39.921c8.699,0,15.777-7.078,15.777-15.777V40.853
	C300.334,32.153,293.256,25.076,284.557,25.076z M55.777,217.467c-3.737,0-6.777-3.04-6.777-6.777v-27.54h44.296
	c0.039,0.068,0.072,0.138,0.112,0.207c0.036,0.078,0.077,0.155,0.122,0.229l18.549,33.882H55.777z M239.052,217.467l-4.736,9
	c-2.487,4.396-5.333,9.02-8.553,13.913c-0.354,0.539-0.609,1.148-0.735,1.78l-6.246,18.704c-0.465,2.349-2.522,4.048-4.912,4.048
	h-0.004l-62.537-0.041c-1.936,0-3.698-1.123-4.525-2.87l-19.453-35.534l-4.927-9l-20.932-38.236
	c-0.056-0.115-0.115-0.23-0.182-0.336c-5.515-9.37,2.489-18.098,10.667-18.098c3.638,0.003,7.318,1.732,9.844,5.91l0.856,1.314
	c1.737,2.673,4.824,3.871,7.989,3.871c5.205,0,10.63-3.244,10.634-8.488l0.03-61.57c0.003-7.952,6.157-11.926,12.31-11.926
	c6.154,0,12.311,3.982,12.307,11.938l-0.011,40.547c0,2.411,1.954,4.517,4.354,4.517h0.074c2.445,0,4.314-2.349,4.314-4.798V92.444
	c0-6.892,5.688-12.185,12.654-12.185c7.549,0,12.307,6.168,12.307,12.736v49.54c0,2.12,1.806,3.827,3.915,3.827
	c0.029,0,0.104,0,0.133,0c0.259-0.007,0.543-0.012,0.809-0.012c5.004,0,11.719,1.19,15.834,8.88c0.794,1.477,2.489,2.26,4.17,2.26
	c0.041,0,0.085,0,0.129,0c0.188-0.002,0.384-0.006,0.583-0.006c6.153,0,18.663,2.278,21.666,20.232
	C248.878,189.672,246.433,202.195,239.052,217.467z M187.38,71.181c-5.729,0-11.088,2.131-15.166,6.002
	c-2.397,2.275-4.159,4.998-5.26,7.989c-3.729-2.808-8.402-4.34-13.33-4.34c-12.184,0-21.375,9.027-21.378,20.998l-0.008,17.91
	c-5.396-5.263-8.758-12.601-8.758-20.716c0-15.972,12.994-28.966,28.965-28.966c3.714,0,7.343,0.701,10.785,2.083l1.358,0.545
	l0.931-1.129c5.528-6.709,13.68-10.558,22.365-10.558c15.972,0,28.967,12.994,28.967,28.965c0,7.8-3.105,14.884-8.138,20.097V92.996
	C208.714,80.762,199.392,71.181,187.38,71.181z M291.334,210.69c0,3.737-3.04,6.777-6.777,6.777h-35.541
	c5.619-12.692,8.019-23.781,7.546-34.317h34.772V210.69z M291.334,178.15h-35.22c-0.086-0.644-0.175-1.288-0.282-1.929
	c-2.172-12.972-8.603-19.631-13.61-22.933c-5.408-3.56-11.195-4.639-15.469-4.842c-3.261-4.834-8.96-9.709-18.039-10.895v-22.077
	c7.397-6.049,12.138-15.23,12.138-25.509c0-18.177-14.789-32.965-32.967-32.965c-9.403,0-18.256,3.963-24.512,10.922
	c-3.513-1.237-7.182-1.863-10.927-1.863c-18.177,0-32.965,14.789-32.965,32.966c0,10.561,5.006,19.959,12.755,25.995l-0.018,37.471
	c-0.374,0.165-0.935,0.328-1.556,0.328c-0.258,0-0.454-0.029-0.583-0.059l-0.579-0.895c-3.964-6.444-10.343-10.142-17.523-10.142
	c-7.671,0-15.091,4.313-18.911,10.996c-2.746,4.8-3.366,10.208-1.883,15.433H49V40.853c0-3.737,3.041-6.777,6.777-6.777h228.779
	c3.737,0,6.777,3.041,6.777,6.777V178.15z"/>
</svg>
