<?xml version="1.0" encoding="utf-8"?>
<!-- Generator: Adobe Illustrator 16.0.0, SVG Export Plug-In . SVG Version: 6.00 Build 0)  -->
<!DOCTYPE svg PUBLIC "-//W3C//DTD SVG 1.1//EN" "http://www.w3.org/Graphics/SVG/1.1/DTD/svg11.dtd">
<svg version="1.1" id="Layer_1" xmlns="http://www.w3.org/2000/svg" xmlns:xlink="http://www.w3.org/1999/xlink" x="0px" y="0px"
	 width="404px" height="404px" viewBox="0 0 404 404" enable-background="new 0 0 404 404" xml:space="preserve">
<path fill="none" stroke="#000000" stroke-width="0.5" stroke-miterlimit="10" d="M384.8,201.997c0-5.206-0.266-10.346-0.699-15.439
	L402,181.155l-4.929-27.983l-18.619,1.041c-2.719-10.049-6.271-19.748-10.576-29.031l14.94-11.168l-14.205-24.611l-17.179,7.366
	c-5.956-8.44-12.575-16.38-19.843-23.68l10.224-15.617l-21.761-18.265l-13.616,12.79c-8.428-5.871-17.359-11.063-26.742-15.478
	l4.263-18.146l-26.705-9.719l-8.394,16.63c-9.849-2.602-20.019-4.387-30.442-5.317l-2.207-18.555h-28.414l-2.205,18.555
	c-10.428,0.93-20.601,2.715-30.444,5.317l-8.4-16.63l-26.7,9.719l4.261,18.146c-9.38,4.415-18.314,9.607-26.739,15.483
	L83.951,39.208L62.184,57.472l10.223,15.617c-7.264,7.3-13.883,15.24-19.836,23.68l-17.177-7.366l-14.209,24.611l14.94,11.168
	c-4.309,9.283-7.861,18.982-10.575,29.031l-18.614-1.041L2,181.155l17.896,5.396c-0.428,5.099-0.699,10.239-0.699,15.445
	c0,5.204,0.271,10.344,0.699,15.445L2,222.837l4.935,27.99l18.611-1.054c2.714,10.055,6.269,19.753,10.578,29.044l-14.94,11.163
	l14.209,24.608l17.174-7.366c5.956,8.441,12.575,16.382,19.839,23.682l-10.223,15.616l21.768,18.257l13.615-12.789
	c8.425,5.884,17.359,11.076,26.743,15.492l-4.265,18.146l26.706,9.718l8.395-16.638c9.844,2.61,20.017,4.39,30.444,5.324
	l2.205,18.556h28.414l2.207-18.562c10.424-0.929,20.598-2.708,30.442-5.318l8.394,16.638l26.705-9.718l-4.263-18.154
	c9.383-4.408,18.314-9.606,26.746-15.484l13.604,12.789l21.769-18.257l-10.224-15.609c7.268-7.307,13.887-15.247,19.843-23.688
	l17.179,7.366l14.205-24.608l-14.94-11.169c4.31-9.285,7.86-18.99,10.576-29.038l18.619,1.04L402,222.837l-17.899-5.402
	C384.534,212.341,384.8,207.2,384.8,201.997z"/>
</svg>
